<svg width="24" height="20" viewBox="0 0 24 20" fill="none" xmlns="http://www.w3.org/2000/svg">
<path d="M20.1667 2.99984H18.3163L17.1497 1.83317C16.4742 1.15767 15.2888 0.666504 14.3333 0.666504H9.66667C8.71117 0.666504 7.52583 1.15767 6.85033 1.83317L5.68367 2.99984H3.83333C1.90367 2.99984 0.333332 4.57017 0.333332 6.49984V15.8332C0.333332 17.7628 1.90367 19.3332 3.83333 19.3332H20.1667C22.0963 19.3332 23.6667 17.7628 23.6667 15.8332V6.49984C23.6667 4.57017 22.0963 2.99984 20.1667 2.99984ZM12 14.6665C10.9169 14.6663 9.87818 14.2359 9.11241 13.4699C8.34663 12.7039 7.91651 11.6651 7.91667 10.582C7.91682 9.49888 8.34724 8.46018 9.11323 7.69441C9.87922 6.92864 10.918 6.49852 12.0012 6.49867C13.0843 6.49882 14.123 6.92924 14.8888 7.69523C15.6545 8.46123 16.0847 9.50005 16.0845 10.5832C16.0843 11.6663 15.6539 12.705 14.8879 13.4708C14.1219 14.2365 13.0831 14.6667 12 14.6665ZM19 9.182C18.8008 9.182 18.6036 9.14277 18.4196 9.06656C18.2356 8.99033 18.0684 8.87862 17.9276 8.73778C17.7867 8.59695 17.675 8.42975 17.5988 8.24574C17.5226 8.06173 17.4833 7.86451 17.4833 7.66534C17.4833 7.46617 17.5226 7.26894 17.5988 7.08493C17.675 6.90092 17.7867 6.73373 17.9276 6.59289C18.0684 6.45206 18.2356 6.34034 18.4196 6.26412C18.6036 6.1879 18.8008 6.14867 19 6.14867C19.4022 6.14867 19.788 6.30846 20.0724 6.59289C20.3569 6.87732 20.5167 7.26309 20.5167 7.66534C20.5167 8.06758 20.3569 8.45335 20.0724 8.73778C19.788 9.02221 19.4022 9.182 19 9.182Z" fill="#13395E"/>
</svg>
