<svg width="245" height="308" viewBox="0 0 245 308" fill="none" xmlns="http://www.w3.org/2000/svg">
<g filter="url(#filter0_d_423_4061)">
<path d="M44.535 121.652C46.303 123.241 48.586 124.116 50.965 124.116H231.522C233.54 124.116 235.473 123.497 237.111 122.326C239.633 120.523 241.14 117.597 241.14 114.499C241.14 110.625 238.835 107.147 235.267 105.639C234.08 105.136 232.82 104.882 231.523 104.882H50.965C48.395 104.882 45.979 105.883 44.164 107.699C42.348 109.515 41.348 111.93 41.348 114.499C41.348 117.223 42.509 119.83 44.535 121.652Z" fill="#FFBF94"/>
<path d="M50.965 107.51H231.522C232.487 107.51 233.406 107.706 234.242 108.059C236.75 109.12 238.51 111.604 238.51 114.498C238.51 116.844 237.354 118.919 235.581 120.187C234.437 121.005 233.035 121.487 231.521 121.487H50.965C49.169 121.487 47.532 120.81 46.294 119.697C44.871 118.418 43.976 116.563 43.976 114.499C43.976 112.569 44.758 110.822 46.023 109.557C47.288 108.293 49.035 107.51 50.965 107.51Z" fill="#2B405E"/>
<path d="M222.872 121.488V78.7689L217.352 73.7739L211.916 78.8529L206.479 73.7739L201.043 78.8529L195.607 73.7739L190.17 78.8529L184.734 73.7739L179.298 78.8529L173.861 73.7739L168.425 78.8529L162.988 73.7739L157.552 78.8529L152.116 73.7739L146.679 78.8529L141.243 73.7739L135.806 78.8529L130.37 73.7739L124.934 78.8529L119.497 73.7739L114.061 78.8529L108.625 73.7739L103.188 78.8529L97.752 73.7739L92.315 78.8529L86.879 73.7739L81.443 78.8529L76.006 73.7739L70.57 78.8529L65.133 73.7739L59.614 78.7689V121.488H222.872Z" fill="#E5E5E5"/>
<path d="M59.6128 121.488L222.872 121.488V116.274L59.6128 116.274V121.488Z" fill="#C4C4C4"/>
<path d="M59.613 61.571V70.063L65.133 64.543L70.569 69.979L76.005 64.543L81.441 69.979L86.877 64.543L92.313 69.979L97.75 64.543L103.186 69.979L108.622 64.543L114.058 69.979L119.494 64.543L124.93 69.979L130.366 64.543L135.802 69.979L141.238 64.543L146.674 69.979L152.11 64.543L157.546 69.979L162.983 64.543L168.419 69.979L173.855 64.543L179.291 69.979L184.727 64.543L190.163 69.979L195.599 64.543L201.035 69.979L206.471 64.543L211.907 69.979L217.343 64.543L222.863 70.063V63.829V51.608V35.469V30.31C222.863 15.227 210.636 3 195.553 3H69.667C54.584 3 42.357 15.227 42.357 30.31V35.469C42.357 47.191 49.47 57.25 59.613 61.571Z" fill="#E5E5E5"/>
<path d="M34.811 3C17.242 3 3 17.242 3 34.811V304.466L8.52 298.946L13.956 304.382L19.392 298.946L24.828 304.382L30.264 298.946L35.7 304.382L41.136 298.946L46.572 304.382L52.008 298.946L57.444 304.382L62.88 298.946L68.316 304.382L73.752 298.946L79.188 304.382L84.624 298.946L90.06 304.382L95.496 298.946L100.932 304.382L106.369 298.946L111.805 304.382L117.241 298.946L122.678 304.382L128.114 298.946L133.55 304.382L138.986 298.946L144.422 304.382L149.858 298.946L155.294 304.382L160.73 298.946L166.25 304.466V34.811C166.25 17.242 180.492 3 198.061 3H34.811Z" fill="white"/>
<path d="M158.639 48.7549H10.619V50.6099H158.639V48.7549Z" fill="#314449"/>
<path d="M158.639 52.6108H10.619V54.4658H158.639V52.6108Z" fill="#314449"/>
<path d="M158.639 212.611H10.619V214.466H158.639V212.611Z" fill="#314449"/>
<path d="M158.639 216.466H10.619V218.321H158.639V216.466Z" fill="#314449"/>
<path d="M158.639 251.872H10.619V253.727H158.639V251.872Z" fill="#314449"/>
<path d="M158.639 255.727H10.619V257.582H158.639V255.727Z" fill="#314449"/>
<path d="M72.604 68.264H12.417C11.424 68.264 10.618 67.459 10.618 66.466C10.618 65.473 11.423 64.668 12.417 64.668H72.604C73.597 64.668 74.402 65.473 74.402 66.466C74.402 67.459 73.597 68.264 72.604 68.264Z" fill="#546F75"/>
<path d="M152.726 68.264H129.913C128.92 68.264 128.114 67.459 128.114 66.466C128.114 65.473 128.919 64.668 129.913 64.668H152.726C153.719 64.668 154.524 65.473 154.524 66.466C154.524 67.459 153.719 68.264 152.726 68.264Z" fill="#546F75"/>
<path d="M117.019 68.264H106.139C105.146 68.264 104.341 67.459 104.341 66.466C104.341 65.473 105.146 64.668 106.139 64.668H117.019C118.012 64.668 118.817 65.473 118.817 66.466C118.817 67.459 118.012 68.264 117.019 68.264Z" fill="#546F75"/>
<path d="M82.83 81.751H12.417C11.424 81.751 10.618 80.946 10.618 79.953C10.618 78.96 11.423 78.155 12.417 78.155H82.83C83.823 78.155 84.628 78.96 84.628 79.953C84.629 80.946 83.824 81.751 82.83 81.751Z" fill="#546F75"/>
<path d="M151.826 81.751H123.867C122.874 81.751 122.069 80.946 122.069 79.953C122.069 78.96 122.874 78.155 123.867 78.155H151.826C152.819 78.155 153.624 78.96 153.624 79.953C153.625 80.946 152.82 81.751 151.826 81.751Z" fill="#546F75"/>
<path d="M117.019 81.751H106.139C105.146 81.751 104.341 80.946 104.341 79.953C104.341 78.96 105.146 78.155 106.139 78.155H117.019C118.012 78.155 118.817 78.96 118.817 79.953C118.817 80.946 118.012 81.751 117.019 81.751Z" fill="#546F75"/>
<path d="M65.271 95.2379H12.417C11.424 95.2379 10.618 94.4329 10.618 93.4399C10.618 92.4469 11.423 91.6409 12.417 91.6409H65.271C66.264 91.6409 67.069 92.4459 67.069 93.4399C67.069 94.4329 66.264 95.2379 65.271 95.2379Z" fill="#546F75"/>
<path d="M150.997 95.2379H129.014C128.021 95.2379 127.215 94.4329 127.215 93.4399C127.215 92.4469 128.02 91.6409 129.014 91.6409H150.997C151.99 91.6409 152.795 92.4459 152.795 93.4399C152.795 94.4329 151.99 95.2379 150.997 95.2379Z" fill="#546F75"/>
<path d="M117.019 95.2379H106.139C105.146 95.2379 104.341 94.4329 104.341 93.4399C104.341 92.4469 105.146 91.6409 106.139 91.6409H117.019C118.012 91.6409 118.817 92.4459 118.817 93.4399C118.817 94.4329 118.012 95.2379 117.019 95.2379Z" fill="#546F75"/>
<path d="M82.83 108.724H12.417C11.424 108.724 10.618 107.919 10.618 106.926C10.618 105.933 11.423 105.128 12.417 105.128H82.83C83.823 105.128 84.628 105.933 84.628 106.926C84.629 107.919 83.824 108.724 82.83 108.724Z" fill="#546F75"/>
<path d="M150.997 108.724H132.694C131.701 108.724 130.896 107.919 130.896 106.926C130.896 105.933 131.701 105.128 132.694 105.128H150.997C151.99 105.128 152.795 105.933 152.795 106.926C152.795 107.919 151.99 108.724 150.997 108.724Z" fill="#546F75"/>
<path d="M117.019 108.724H106.139C105.146 108.724 104.341 107.919 104.341 106.926C104.341 105.933 105.146 105.128 106.139 105.128H117.019C118.012 105.128 118.817 105.933 118.817 106.926C118.817 107.919 118.012 108.724 117.019 108.724Z" fill="#546F75"/>
<path d="M77.271 122.211H12.417C11.424 122.211 10.618 121.406 10.618 120.413C10.618 119.42 11.423 118.615 12.417 118.615H77.271C78.264 118.615 79.069 119.42 79.069 120.413C79.069 121.406 78.264 122.211 77.271 122.211Z" fill="#546F75"/>
<path d="M150.997 122.211H123.038C122.045 122.211 121.24 121.406 121.24 120.413C121.24 119.42 122.045 118.615 123.038 118.615H150.997C151.99 118.615 152.795 119.42 152.795 120.413C152.795 121.406 151.99 122.211 150.997 122.211Z" fill="#546F75"/>
<path d="M117.019 122.211H106.139C105.146 122.211 104.341 121.406 104.341 120.413C104.341 119.42 105.146 118.615 106.139 118.615H117.019C118.012 118.615 118.817 119.42 118.817 120.413C118.817 121.406 118.012 122.211 117.019 122.211Z" fill="#546F75"/>
<path d="M82.83 135.698H12.417C11.424 135.698 10.618 134.893 10.618 133.899C10.618 132.906 11.423 132.101 12.417 132.101H82.83C83.823 132.101 84.628 132.906 84.628 133.899C84.629 134.893 83.824 135.698 82.83 135.698Z" fill="#546F75"/>
<path d="M150.997 135.698H123.038C122.045 135.698 121.24 134.893 121.24 133.899C121.24 132.906 122.045 132.101 123.038 132.101H150.997C151.99 132.101 152.795 132.906 152.795 133.899C152.795 134.893 151.99 135.698 150.997 135.698Z" fill="#546F75"/>
<path d="M117.019 135.698H106.139C105.146 135.698 104.341 134.893 104.341 133.899C104.341 132.906 105.146 132.101 106.139 132.101H117.019C118.012 132.101 118.817 132.906 118.817 133.899C118.817 134.893 118.012 135.698 117.019 135.698Z" fill="#546F75"/>
<path d="M82.83 149.185H12.417C11.424 149.185 10.618 148.38 10.618 147.387C10.618 146.394 11.423 145.589 12.417 145.589H82.83C83.823 145.589 84.628 146.394 84.628 147.387C84.629 148.379 83.824 149.185 82.83 149.185Z" fill="#546F75"/>
<path d="M150.997 149.185H128.114C127.121 149.185 126.316 148.38 126.316 147.387C126.316 146.394 127.121 145.589 128.114 145.589H150.997C151.99 145.589 152.795 146.394 152.795 147.387C152.795 148.379 151.99 149.185 150.997 149.185Z" fill="#546F75"/>
<path d="M117.019 149.185H106.139C105.146 149.185 104.341 148.38 104.341 147.387C104.341 146.394 105.146 145.589 106.139 145.589H117.019C118.012 145.589 118.817 146.394 118.817 147.387C118.817 148.379 118.012 149.185 117.019 149.185Z" fill="#546F75"/>
<path d="M68.604 162.671H12.417C11.424 162.671 10.618 161.866 10.618 160.873C10.618 159.88 11.423 159.075 12.417 159.075H68.604C69.597 159.075 70.402 159.88 70.402 160.873C70.402 161.866 69.597 162.671 68.604 162.671Z" fill="#546F75"/>
<path d="M150.997 162.671H125.194C124.201 162.671 123.396 161.866 123.396 160.873C123.396 159.88 124.201 159.075 125.194 159.075H150.997C151.99 159.075 152.795 159.88 152.795 160.873C152.795 161.866 151.99 162.671 150.997 162.671Z" fill="#546F75"/>
<path d="M117.019 162.671H106.139C105.146 162.671 104.341 161.866 104.341 160.873C104.341 159.88 105.146 159.075 106.139 159.075H117.019C118.012 159.075 118.817 159.88 118.817 160.873C118.817 161.866 118.012 162.671 117.019 162.671Z" fill="#546F75"/>
<path d="M82.83 176.158H12.417C11.424 176.158 10.618 175.353 10.618 174.36C10.618 173.367 11.423 172.562 12.417 172.562H82.83C83.823 172.562 84.628 173.367 84.628 174.36C84.629 175.353 83.824 176.158 82.83 176.158Z" fill="#546F75"/>
<path d="M150.997 176.158H123.038C122.045 176.158 121.24 175.353 121.24 174.36C121.24 173.367 122.045 172.562 123.038 172.562H150.997C151.99 172.562 152.795 173.367 152.795 174.36C152.795 175.353 151.99 176.158 150.997 176.158Z" fill="#546F75"/>
<path d="M117.019 176.158H106.139C105.146 176.158 104.341 175.353 104.341 174.36C104.341 173.367 105.146 172.562 106.139 172.562H117.019C118.012 172.562 118.817 173.367 118.817 174.36C118.817 175.353 118.012 176.158 117.019 176.158Z" fill="#546F75"/>
<path d="M73.503 189.645H12.417C11.424 189.645 10.618 188.84 10.618 187.847C10.618 186.854 11.423 186.049 12.417 186.049H73.503C74.496 186.049 75.301 186.854 75.301 187.847C75.302 188.839 74.496 189.645 73.503 189.645Z" fill="#546F75"/>
<path d="M150.997 189.645H128.694C127.701 189.645 126.896 188.84 126.896 187.847C126.896 186.854 127.701 186.049 128.694 186.049H150.997C151.99 186.049 152.795 186.854 152.795 187.847C152.795 188.839 151.99 189.645 150.997 189.645Z" fill="#546F75"/>
<path d="M117.019 189.645H106.139C105.146 189.645 104.341 188.84 104.341 187.847C104.341 186.854 105.146 186.049 106.139 186.049H117.019C118.012 186.049 118.817 186.854 118.817 187.847C118.817 188.839 118.012 189.645 117.019 189.645Z" fill="#546F75"/>
<path d="M82.83 203.131H12.417C11.424 203.131 10.618 202.326 10.618 201.332C10.618 200.339 11.423 199.534 12.417 199.534H82.83C83.823 199.534 84.628 200.339 84.628 201.332C84.629 202.326 83.824 203.131 82.83 203.131Z" fill="#546F75"/>
<path d="M150.997 203.131H126.316C125.323 203.131 124.518 202.326 124.518 201.332C124.518 200.339 125.323 199.534 126.316 199.534H150.997C151.99 199.534 152.795 200.339 152.795 201.332C152.795 202.326 151.99 203.131 150.997 203.131Z" fill="#546F75"/>
<path d="M117.019 203.131H106.139C105.146 203.131 104.341 202.326 104.341 201.332C104.341 200.339 105.146 199.534 106.139 199.534H117.019C118.012 199.534 118.817 200.339 118.817 201.332C118.817 202.326 118.012 203.131 117.019 203.131Z" fill="#546F75"/>
<path d="M149.629 237.7H121.984C120.235 237.7 118.817 236.282 118.817 234.533C118.817 232.784 120.235 231.366 121.984 231.366H149.629C151.378 231.366 152.796 232.784 152.796 234.533C152.795 236.282 151.378 237.7 149.629 237.7Z" fill="#546F75"/>
<path d="M48.9951 37.8066V20.8874H54.712C56.0338 20.8874 57.1188 21.1132 57.9669 21.5649C58.8151 22.011 59.4429 22.6251 59.8505 23.4071C60.2581 24.1892 60.4618 25.0787 60.4618 26.0756C60.4618 27.0724 60.2581 27.9564 59.8505 28.7274C59.4429 29.4985 58.8178 30.1043 57.9752 30.5449C57.1325 30.98 56.0558 31.1976 54.745 31.1976H50.1187V29.347H54.6789C55.5821 29.347 56.3091 29.2149 56.8599 28.9505C57.4162 28.6861 57.8182 28.3116 58.0661 27.827C58.3194 27.3368 58.4461 26.753 58.4461 26.0756C58.4461 25.3981 58.3194 24.8061 58.0661 24.2994C57.8127 23.7927 57.4079 23.4016 56.8516 23.1263C56.2954 22.8454 55.5601 22.7049 54.6459 22.7049H51.0439V37.8066H48.9951ZM56.959 30.2062L61.1227 37.8066H58.7435L54.6459 30.2062H56.959ZM63.8758 37.8066V20.8874H74.0868V22.7049H65.9246V28.4218H73.5581V30.2393H65.9246V35.9891H74.219V37.8066H63.8758ZM91.3943 26.1747H89.3455C89.2243 25.5854 89.0123 25.0677 88.7094 24.6216C88.412 24.1754 88.0485 23.8009 87.6189 23.498C87.1948 23.1896 86.7239 22.9583 86.2062 22.8041C85.6885 22.6499 85.1488 22.5728 84.587 22.5728C83.5626 22.5728 82.6346 22.8316 81.8029 23.3493C80.9768 23.867 80.3186 24.6298 79.8285 25.6377C79.3438 26.6456 79.1015 27.882 79.1015 29.347C79.1015 30.812 79.3438 32.0485 79.8285 33.0564C80.3186 34.0643 80.9768 34.8271 81.8029 35.3448C82.6346 35.8625 83.5626 36.1213 84.587 36.1213C85.1488 36.1213 85.6885 36.0442 86.2062 35.89C86.7239 35.7358 87.1948 35.5072 87.6189 35.2043C88.0485 34.8959 88.412 34.5186 88.7094 34.0725C89.0123 33.6209 89.2243 33.1032 89.3455 32.5194H91.3943C91.2401 33.3841 90.9592 34.1579 90.5517 34.8408C90.1441 35.5238 89.6374 36.1048 89.0316 36.584C88.4257 37.0576 87.7456 37.4184 86.991 37.6662C86.242 37.914 85.4407 38.038 84.587 38.038C83.144 38.038 81.8607 37.6855 80.7372 36.9805C79.6137 36.2755 78.7297 35.2732 78.0853 33.9734C77.4409 32.6736 77.1187 31.1315 77.1187 29.347C77.1187 27.5626 77.4409 26.0205 78.0853 24.7207C78.7297 23.4209 79.6137 22.4185 80.7372 21.7136C81.8607 21.0086 83.144 20.6561 84.587 20.6561C85.4407 20.6561 86.242 20.78 86.991 21.0279C87.7456 21.2757 88.4257 21.6392 89.0316 22.1184C89.6374 22.592 90.1441 23.1703 90.5517 23.8533C90.9592 24.5307 91.2401 25.3045 91.3943 26.1747ZM94.705 37.8066V20.8874H104.916V22.7049H96.7539V28.4218H104.387V30.2393H96.7539V35.9891H105.048V37.8066H94.705ZM110.658 20.8874V37.8066H108.609V20.8874H110.658ZM114.766 37.8066V20.8874H120.482C121.81 20.8874 122.895 21.127 123.737 21.6062C124.586 22.0798 125.213 22.7215 125.621 23.5311C126.029 24.3407 126.232 25.2439 126.232 26.2408C126.232 27.2376 126.029 28.1436 125.621 28.9588C125.219 29.7739 124.597 30.4238 123.754 30.9084C122.911 31.3876 121.832 31.6272 120.515 31.6272H116.418V29.8097H120.449C121.358 29.8097 122.088 29.6527 122.639 29.3388C123.189 29.0248 123.589 28.6008 123.837 28.0665C124.09 27.5268 124.217 26.9182 124.217 26.2408C124.217 25.5634 124.09 24.9575 123.837 24.4233C123.589 23.8891 123.187 23.4705 122.63 23.1676C122.074 22.8591 121.336 22.7049 120.416 22.7049H116.814V37.8066H114.766ZM128.607 22.7049V20.8874H141.297V22.7049H135.977V37.8066H133.928V22.7049H128.607Z" fill="#314449"/>
<path d="M38.6603 270.557V269.126H48.6543V270.557H44.4641V282.451H42.8505V270.557H38.6603ZM51.1447 282.451V269.126H52.7583V275.06H59.8635V269.126H61.4771V282.451H59.8635V276.491H52.7583V282.451H51.1447ZM65.2541 282.451H63.5624L68.4553 269.126H70.121L75.0139 282.451H73.3222L69.3402 271.234H69.2361L65.2541 282.451ZM65.8788 277.246H72.6976V278.677H65.8788V277.246ZM87.6561 269.126V282.451H86.0946L78.8333 271.989H78.7031V282.451H77.0895V269.126H78.6511L85.9384 279.614H86.0685V269.126H87.6561ZM90.885 282.451V269.126H92.4986V275.736H92.6548L98.6408 269.126H100.749L95.1533 275.138L100.749 282.451H98.7969L94.1643 276.257L92.4986 278.131V282.451H90.885ZM106.846 269.126H108.693L112.389 275.346H112.545L116.241 269.126H118.089L113.274 276.96V282.451H111.66V276.96L106.846 269.126ZM130.793 275.788C130.793 277.194 130.539 278.408 130.032 279.432C129.524 280.456 128.828 281.245 127.943 281.801C127.058 282.356 126.047 282.633 124.911 282.633C123.774 282.633 122.764 282.356 121.879 281.801C120.994 281.245 120.298 280.456 119.79 279.432C119.283 278.408 119.029 277.194 119.029 275.788C119.029 274.383 119.283 273.169 119.79 272.145C120.298 271.121 120.994 270.332 121.879 269.776C122.764 269.221 123.774 268.944 124.911 268.944C126.047 268.944 127.058 269.221 127.943 269.776C128.828 270.332 129.524 271.121 130.032 272.145C130.539 273.169 130.793 274.383 130.793 275.788ZM129.231 275.788C129.231 274.635 129.038 273.661 128.652 272.867C128.27 272.073 127.752 271.472 127.097 271.065C126.446 270.657 125.718 270.453 124.911 270.453C124.104 270.453 123.373 270.657 122.718 271.065C122.068 271.472 121.549 272.073 121.163 272.867C120.781 273.661 120.591 274.635 120.591 275.788C120.591 276.942 120.781 277.916 121.163 278.71C121.549 279.504 122.068 280.104 122.718 280.512C123.373 280.92 124.104 281.124 124.911 281.124C125.718 281.124 126.446 280.92 127.097 280.512C127.752 280.104 128.27 279.504 128.652 278.71C129.038 277.916 129.231 276.942 129.231 275.788ZM142.251 269.126H143.864V277.949C143.864 278.86 143.65 279.673 143.22 280.389C142.795 281.1 142.194 281.662 141.418 282.074C140.642 282.482 139.731 282.685 138.685 282.685C137.64 282.685 136.729 282.482 135.952 282.074C135.176 281.662 134.573 281.1 134.144 280.389C133.719 279.673 133.506 278.86 133.506 277.949V269.126H135.12V277.819C135.12 278.469 135.263 279.048 135.549 279.556C135.835 280.059 136.243 280.456 136.772 280.746C137.306 281.033 137.943 281.176 138.685 281.176C139.427 281.176 140.065 281.033 140.598 280.746C141.132 280.456 141.539 280.059 141.821 279.556C142.108 279.048 142.251 278.469 142.251 277.819V269.126ZM148.909 269.126L148.779 278.703H147.269L147.139 269.126H148.909ZM148.024 282.555C147.703 282.555 147.427 282.44 147.197 282.21C146.968 281.981 146.853 281.705 146.853 281.384C146.853 281.063 146.968 280.788 147.197 280.558C147.427 280.328 147.703 280.213 148.024 280.213C148.345 280.213 148.62 280.328 148.85 280.558C149.08 280.788 149.195 281.063 149.195 281.384C149.195 281.597 149.141 281.792 149.032 281.97C148.928 282.148 148.787 282.291 148.609 282.399C148.436 282.503 148.241 282.555 148.024 282.555Z" fill="#314449"/>
<path d="M21.519 228.276V226.819H31.6862V228.276H27.4234V240.376H25.7818V228.276H21.519ZM45.0936 233.598C45.0936 235.027 44.8355 236.263 44.3191 237.304C43.8028 238.346 43.0946 239.149 42.1944 239.714C41.2941 240.279 40.2659 240.561 39.1098 240.561C37.9536 240.561 36.9254 240.279 36.0252 239.714C35.125 239.149 34.4167 238.346 33.9004 237.304C33.3841 236.263 33.1259 235.027 33.1259 233.598C33.1259 232.168 33.3841 230.932 33.9004 229.891C34.4167 228.849 35.125 228.046 36.0252 227.481C36.9254 226.917 37.9536 226.634 39.1098 226.634C40.2659 226.634 41.2941 226.917 42.1944 227.481C43.0946 228.046 43.8028 228.849 44.3191 229.891C44.8355 230.932 45.0936 232.168 45.0936 233.598ZM43.505 233.598C43.505 232.424 43.3086 231.433 42.9159 230.626C42.5275 229.818 42.0002 229.207 41.3338 228.792C40.6719 228.377 39.9306 228.17 39.1098 228.17C38.289 228.17 37.5454 228.377 36.8791 228.792C36.2171 229.207 35.6898 229.818 35.2971 230.626C34.9087 231.433 34.7146 232.424 34.7146 233.598C34.7146 234.771 34.9087 235.762 35.2971 236.57C35.6898 237.377 36.2171 237.988 36.8791 238.403C37.5454 238.818 38.289 239.025 39.1098 239.025C39.9306 239.025 40.6719 238.818 41.3338 238.403C42.0002 237.988 42.5275 237.377 42.9159 236.57C43.3086 235.762 43.505 234.771 43.505 233.598ZM46.5482 228.276V226.819H56.7154V228.276H52.4526V240.376H50.811V228.276H46.5482ZM58.2213 240.376H56.5003L61.478 226.819H63.1725L68.1502 240.376H66.4292L62.3782 228.964H62.2723L58.2213 240.376ZM58.8567 235.08H65.7938V236.537H58.8567V235.08ZM70.2618 240.376V226.819H71.9034V238.919H78.2049V240.376H70.2618Z" fill="#314449"/>
<path d="M109.741 242.07V225.125H110.827V242.07H109.741ZM113.395 230.209C113.316 229.538 112.994 229.017 112.429 228.646C111.864 228.276 111.171 228.09 110.35 228.09C109.75 228.09 109.225 228.187 108.775 228.382C108.329 228.576 107.981 228.843 107.729 229.183C107.482 229.522 107.358 229.908 107.358 230.341C107.358 230.703 107.444 231.014 107.616 231.274C107.793 231.53 108.018 231.744 108.292 231.916C108.565 232.084 108.852 232.223 109.152 232.333C109.452 232.439 109.728 232.525 109.98 232.591L111.356 232.962C111.709 233.055 112.102 233.183 112.535 233.346C112.971 233.509 113.388 233.732 113.786 234.015C114.187 234.293 114.518 234.65 114.779 235.087C115.039 235.524 115.169 236.06 115.169 236.695C115.169 237.428 114.977 238.09 114.593 238.681C114.214 239.273 113.658 239.742 112.925 240.091C112.197 240.44 111.312 240.614 110.271 240.614C109.3 240.614 108.459 240.457 107.749 240.144C107.043 239.831 106.487 239.394 106.081 238.833C105.679 238.273 105.452 237.622 105.399 236.881H107.094C107.138 237.393 107.31 237.816 107.61 238.152C107.914 238.483 108.298 238.73 108.762 238.893C109.229 239.052 109.732 239.131 110.271 239.131C110.897 239.131 111.46 239.03 111.959 238.827C112.457 238.619 112.852 238.333 113.144 237.966C113.435 237.596 113.58 237.163 113.58 236.669C113.58 236.219 113.455 235.853 113.203 235.57C112.952 235.288 112.621 235.058 112.21 234.882C111.8 234.705 111.356 234.551 110.88 234.418L109.212 233.942C108.153 233.637 107.314 233.203 106.696 232.638C106.079 232.073 105.77 231.334 105.77 230.42C105.77 229.661 105.975 228.999 106.385 228.435C106.8 227.865 107.356 227.424 108.053 227.111C108.755 226.793 109.538 226.634 110.403 226.634C111.277 226.634 112.054 226.791 112.733 227.104C113.413 227.413 113.951 227.837 114.348 228.375C114.75 228.913 114.962 229.525 114.984 230.209H113.395Z" fill="#314449"/>
</g>
<defs>
<filter id="filter0_d_423_4061" x="0" y="0" width="244.14" height="307.466" filterUnits="userSpaceOnUse" color-interpolation-filters="sRGB">
<feFlood flood-opacity="0" result="BackgroundImageFix"/>
<feColorMatrix in="SourceAlpha" type="matrix" values="0 0 0 0 0 0 0 0 0 0 0 0 0 0 0 0 0 0 127 0" result="hardAlpha"/>
<feOffset/>
<feGaussianBlur stdDeviation="1.5"/>
<feComposite in2="hardAlpha" operator="out"/>
<feColorMatrix type="matrix" values="0 0 0 0 0 0 0 0 0 0 0 0 0 0 0 0 0 0 0.25 0"/>
<feBlend mode="normal" in2="BackgroundImageFix" result="effect1_dropShadow_423_4061"/>
<feBlend mode="normal" in="SourceGraphic" in2="effect1_dropShadow_423_4061" result="shape"/>
</filter>
</defs>
</svg>
