<svg width="21" height="20" viewBox="0 0 21 20" fill="none" xmlns="http://www.w3.org/2000/svg">
<path d="M14.45 11.5C14.2511 11.5 14.0603 11.579 13.9197 11.7197C13.779 11.8603 13.7 12.0511 13.7 12.25C13.7 12.4489 13.779 12.6397 13.9197 12.7803C14.0603 12.921 14.2511 13 14.45 13H16.7C16.8989 13 17.0897 12.921 17.2303 12.7803C17.371 12.6397 17.45 12.4489 17.45 12.25C17.45 12.0511 17.371 11.8603 17.2303 11.7197C17.0897 11.579 16.8989 11.5 16.7 11.5H14.45ZM0.950008 2.5C0.950008 1.90326 1.18706 1.33097 1.60902 0.90901C2.03097 0.487053 2.60327 0.25 3.20001 0.25H15.7625C16.409 0.25 17.029 0.506807 17.4861 0.963927C17.9432 1.42105 18.2 2.04103 18.2 2.6875V3.442C19.511 3.9055 20.45 5.15575 20.45 6.625V16.375C20.45 17.2701 20.0944 18.1285 19.4615 18.7615C18.8286 19.3944 17.9701 19.75 17.075 19.75H4.32501C3.4299 19.75 2.57146 19.3944 1.93852 18.7615C1.30559 18.1285 0.950008 17.2701 0.950008 16.375V2.6875H0.957508C0.952402 2.62513 0.949899 2.56258 0.950008 2.5ZM17.075 4.75H2.45001V16.375C2.45001 16.8723 2.64755 17.3492 2.99918 17.7008C3.35081 18.0525 3.82773 18.25 4.32501 18.25H17.075C17.5723 18.25 18.0492 18.0525 18.4008 17.7008C18.7525 17.3492 18.95 16.8723 18.95 16.375V6.625C18.95 6.12772 18.7525 5.65081 18.4008 5.29917C18.0492 4.94754 17.5723 4.75 17.075 4.75ZM16.7 2.6875C16.7 2.17 16.28 1.75 15.7625 1.75H3.20001C3.0011 1.75 2.81033 1.82902 2.66968 1.96967C2.52903 2.11032 2.45001 2.30109 2.45001 2.5C2.45001 2.69891 2.52903 2.88968 2.66968 3.03033C2.81033 3.17098 3.0011 3.25 3.20001 3.25H16.7V2.6875Z" fill="#888888"/>
</svg>
