<svg width="17" height="20" viewBox="0 0 17 20" fill="none" xmlns="http://www.w3.org/2000/svg">
<path d="M3.30002 4C3.30002 3.73478 3.40538 3.48043 3.59291 3.29289C3.78045 3.10536 4.0348 3 4.30002 3H12.3C12.5652 3 12.8196 3.10536 13.0071 3.29289C13.1947 3.48043 13.3 3.73478 13.3 4V6C13.3 6.26522 13.1947 6.51957 13.0071 6.70711C12.8196 6.89464 12.5652 7 12.3 7H4.30002C4.0348 7 3.78045 6.89464 3.59291 6.70711C3.40538 6.51957 3.30002 6.26522 3.30002 6V4ZM4.80002 5.5H11.8V4.5H4.80002V5.5ZM0.300018 2.5C0.300018 1.83696 0.56341 1.20107 1.03225 0.732233C1.50109 0.263392 2.13698 0 2.80002 0H14.3C14.6283 0 14.9534 0.0646644 15.2567 0.190301C15.56 0.315938 15.8356 0.500087 16.0678 0.732233C16.2999 0.964379 16.4841 1.23998 16.6097 1.54329C16.7354 1.84661 16.8 2.1717 16.8 2.5V16.75C16.8 16.9489 16.721 17.1397 16.5803 17.2803C16.4397 17.421 16.2489 17.5 16.05 17.5H1.80002C1.80002 17.7652 1.90538 18.0196 2.09291 18.2071C2.28045 18.3946 2.5348 18.5 2.80002 18.5H16.05C16.2489 18.5 16.4397 18.579 16.5803 18.7197C16.721 18.8603 16.8 19.0511 16.8 19.25C16.8 19.4489 16.721 19.6397 16.5803 19.7803C16.4397 19.921 16.2489 20 16.05 20H2.80002C2.13698 20 1.50109 19.7366 1.03225 19.2678C0.56341 18.7989 0.300018 18.163 0.300018 17.5V2.5ZM1.80002 16H15.3V2.5C15.3 2.23478 15.1947 1.98043 15.0071 1.79289C14.8196 1.60536 14.5652 1.5 14.3 1.5H2.80002C2.5348 1.5 2.28045 1.60536 2.09291 1.79289C1.90538 1.98043 1.80002 2.23478 1.80002 2.5V16Z" fill="#616161"/>
</svg>
