<svg width="25" height="24" viewBox="0 0 25 24" fill="none" xmlns="http://www.w3.org/2000/svg">
<path d="M15.9 21V13C15.9 12.7348 15.7946 12.4804 15.6071 12.2929C15.4196 12.1054 15.1652 12 14.9 12H10.9C10.6348 12 10.3804 12.1054 10.1929 12.2929C10.0054 12.4804 9.9 12.7348 9.9 13V21" stroke="#616161" stroke-width="1.33333" stroke-linecap="round" stroke-linejoin="round"/>
<path d="M3.9 9.99997C3.89993 9.70904 3.96334 9.42159 4.08579 9.15768C4.20824 8.89378 4.3868 8.65976 4.609 8.47197L11.609 2.47297C11.97 2.16788 12.4274 2.00049 12.9 2.00049C13.3726 2.00049 13.83 2.16788 14.191 2.47297L21.191 8.47197C21.4132 8.65976 21.5918 8.89378 21.7142 9.15768C21.8367 9.42159 21.9001 9.70904 21.9 9.99997V19C21.9 19.5304 21.6893 20.0391 21.3142 20.4142C20.9391 20.7893 20.4304 21 19.9 21H5.9C5.36957 21 4.86086 20.7893 4.48579 20.4142C4.11072 20.0391 3.9 19.5304 3.9 19V9.99997Z" stroke="#616161" stroke-width="1.33333" stroke-linecap="round" stroke-linejoin="round"/>
</svg>
