<svg width="18" height="18" viewBox="0 0 18 18" fill="none" xmlns="http://www.w3.org/2000/svg">
<path d="M1.10001 15C1.10001 13.9391 1.52143 12.9217 2.27158 12.1716C3.02172 11.4214 4.03914 11 5.10001 11H13.1C14.1609 11 15.1783 11.4214 15.9284 12.1716C16.6786 12.9217 17.1 13.9391 17.1 15C17.1 15.5304 16.8893 16.0391 16.5142 16.4142C16.1391 16.7893 15.6304 17 15.1 17H3.10001C2.56957 17 2.06087 16.7893 1.68579 16.4142C1.31072 16.0391 1.10001 15.5304 1.10001 15Z" stroke="#616161" stroke-width="1.33333" stroke-linejoin="round"/>
<path d="M9.10001 7C10.7569 7 12.1 5.65685 12.1 4C12.1 2.34315 10.7569 1 9.10001 1C7.44315 1 6.10001 2.34315 6.10001 4C6.10001 5.65685 7.44315 7 9.10001 7Z" stroke="#616161" stroke-width="1.33333"/>
</svg>
