<svg width="40" height="40" viewBox="0 0 40 40" fill="none" xmlns="http://www.w3.org/2000/svg">
<rect width="40" height="40" rx="12" fill="#EAF5F5"/>
<path d="M9.44814 29.3162H10.6336C11.3767 29.3162 11.9591 28.7436 11.9591 28.0005V26.3132C14.1894 26.4537 17.4136 26.554 19.9949 26.554C22.5864 26.554 25.8106 26.4537 28.0409 26.3132V28.0005C28.0409 28.7436 28.6134 29.3162 29.3664 29.3162H30.5519C31.3053 29.3162 31.8877 28.7436 31.8877 28.0005V22.2049C31.8877 20.5172 31.5461 19.5627 30.6123 18.3576L29.7684 17.2626C29.3969 15.4549 28.7339 13.5563 28.3824 12.8132C27.8497 11.6779 26.8053 11.0046 25.4694 10.8242C24.7966 10.7436 22.5967 10.6836 19.9949 10.6836C17.4037 10.6836 15.2034 10.7539 14.5306 10.8242C13.1947 10.9849 12.1503 11.6779 11.618 12.8127C11.2666 13.5563 10.6031 15.4549 10.2316 17.2626L9.38771 18.3576C8.45343 19.5632 8.11229 20.5172 8.11229 22.2049V28.0005C8.11229 28.7436 8.69514 29.3162 9.44814 29.3162ZM12.2609 16.429C12.5017 15.3242 12.9839 13.8876 13.3151 13.3047C13.5864 12.8333 13.8779 12.6319 14.4204 12.562C15.1833 12.4515 16.8911 12.391 19.9949 12.391C23.1089 12.391 24.8163 12.4313 25.58 12.562C26.1123 12.6422 26.4033 12.8329 26.6849 13.3052C27.0264 13.8777 27.4781 15.3237 27.7391 16.429C27.83 16.8006 27.6791 16.9412 27.2874 16.9112C25.6203 16.8109 23.6313 16.7003 19.9949 16.7003C16.3691 16.7003 14.3801 16.8109 12.7126 16.9112C12.3209 16.9412 12.1803 16.8006 12.2604 16.429M12.6719 23.9526C11.7179 23.9526 11.0047 23.2292 11.0047 22.285C11.0047 21.3306 11.7179 20.6179 12.6719 20.6179C13.6259 20.6179 14.3394 21.3306 14.3394 22.285C14.3394 23.2292 13.6263 23.9522 12.6723 23.9522M27.3277 23.9522C26.3733 23.9522 25.6606 23.2287 25.6606 22.2846C25.6606 21.3302 26.3733 20.6175 27.3277 20.6175C28.2719 20.6175 28.9949 21.3302 28.9949 22.2846C28.9949 23.2287 28.2719 23.9522 27.3277 23.9522ZM17.3334 23.4897C16.6301 23.4897 16.1377 22.9875 16.1377 22.2842C16.1377 21.571 16.6301 21.079 17.3334 21.079H22.667C23.3699 21.079 23.8623 21.571 23.8623 22.2842C23.8623 22.987 23.3699 23.4897 22.6666 23.4897H17.3334Z" fill="#3A7879"/>
</svg>
