<svg width="40" height="40" viewBox="0 0 40 40" fill="none" xmlns="http://www.w3.org/2000/svg">
<rect width="40" height="40" rx="12" fill="#EDF9E7"/>
<path d="M29.947 18.941C29.855 18.5442 29.6776 18.1722 29.427 17.851C29.1728 17.5322 28.8519 17.2729 28.487 17.091C28.1992 16.9494 27.8869 16.8646 27.567 16.841C27.404 15.0911 26.6284 13.455 25.377 12.221C23.9521 10.7982 22.0207 9.99902 20.007 9.99902C17.9933 9.99902 16.062 10.7982 14.637 12.221C13.3856 13.455 12.61 15.0911 12.447 16.841C12.1271 16.8646 11.8148 16.9494 11.527 17.091C11.1603 17.27 10.8389 17.5299 10.587 17.851C10.3346 18.1715 10.1569 18.5443 10.0669 18.9422C9.97697 19.3401 9.977 19.7531 10.067 20.151L11.637 26.581C11.9072 27.5662 12.4944 28.435 13.3078 29.0532C14.1211 29.6713 15.1154 30.0044 16.137 30.001H23.847C24.8721 30.0021 25.8691 29.6658 26.6841 29.0442C27.4992 28.4225 28.087 27.5499 28.357 26.561L29.917 20.151C30.017 19.755 30.027 19.341 29.947 18.941ZM16.847 25.361C16.847 25.5599 16.768 25.7507 16.6273 25.8913C16.4867 26.032 16.2959 26.111 16.097 26.111C15.8981 26.111 15.7073 26.032 15.5667 25.8913C15.426 25.7507 15.347 25.5599 15.347 25.361V21.421C15.347 21.2221 15.426 21.0313 15.5667 20.8907C15.7073 20.75 15.8981 20.671 16.097 20.671C16.2959 20.671 16.4867 20.75 16.6273 20.8907C16.768 21.0313 16.847 21.2221 16.847 21.421V25.361ZM20.757 25.361C20.757 25.4595 20.7376 25.557 20.6999 25.648C20.6622 25.739 20.607 25.8217 20.5373 25.8913C20.4677 25.961 20.385 26.0162 20.294 26.0539C20.203 26.0916 20.1055 26.111 20.007 26.111C19.9085 26.111 19.811 26.0916 19.72 26.0539C19.629 26.0162 19.5463 25.961 19.4767 25.8913C19.407 25.8217 19.3518 25.739 19.3141 25.648C19.2764 25.557 19.257 25.4595 19.257 25.361V21.421C19.257 21.2221 19.336 21.0313 19.4767 20.8907C19.6173 20.75 19.8081 20.671 20.007 20.671C20.2059 20.671 20.3967 20.75 20.5373 20.8907C20.678 21.0313 20.757 21.2221 20.757 21.421V25.361ZM24.667 25.361C24.667 25.5599 24.588 25.7507 24.4473 25.8913C24.3067 26.032 24.1159 26.111 23.917 26.111C23.7181 26.111 23.5273 26.032 23.3867 25.8913C23.246 25.7507 23.167 25.5599 23.167 25.361V21.421C23.167 21.2221 23.246 21.0313 23.3867 20.8907C23.5273 20.75 23.7181 20.671 23.917 20.671C24.1159 20.671 24.3067 20.75 24.4473 20.8907C24.588 21.0313 24.667 21.2221 24.667 21.421V25.361ZM13.957 16.821C14.1215 15.4786 14.7346 14.2312 15.697 13.281C16.842 12.1415 18.3916 11.5018 20.007 11.5018C21.6224 11.5018 23.172 12.1415 24.317 13.281C25.2794 14.2312 25.8926 15.4786 26.057 16.821H13.957Z" fill="#549D29"/>
</svg>
