<svg width="40" height="40" viewBox="0 0 40 40" fill="none" xmlns="http://www.w3.org/2000/svg">
<rect width="40" height="40" rx="12" fill="#F9E7E7"/>
<path d="M14 28C13.7167 28 13.4793 27.904 13.288 27.712C13.0967 27.52 13.0007 27.2827 13 27C12.9993 26.7173 13.0953 26.48 13.288 26.288C13.4807 26.096 13.718 26 14 26H14.6L16.575 19.425C16.7083 18.9917 16.9543 18.646 17.313 18.388C17.6717 18.13 18.0673 18.0007 18.5 18H21.5C21.9333 18 22.3293 18.1293 22.688 18.388C23.0467 18.6467 23.2923 18.9923 23.425 19.425L25.4 26H26C26.2833 26 26.521 26.096 26.713 26.288C26.905 26.48 27.0007 26.7173 27 27C26.9993 27.2827 26.9033 27.5203 26.712 27.713C26.5207 27.9057 26.2833 28.0013 26 28H14ZM19 15V12C19 11.7167 19.096 11.4793 19.288 11.288C19.48 11.0967 19.7173 11.0007 20 11C20.2827 10.9993 20.5203 11.0953 20.713 11.288C20.9057 11.4807 21.0013 11.718 21 12V15C21 15.2833 20.904 15.521 20.712 15.713C20.52 15.905 20.2827 16.0007 20 16C19.7173 15.9993 19.48 15.9033 19.288 15.712C19.096 15.5207 19 15.2833 19 15ZM24.25 16.35L26.375 14.225C26.5583 14.0417 26.7877 13.9457 27.063 13.937C27.3383 13.9283 27.5757 14.0243 27.775 14.225C27.9583 14.4083 28.05 14.6417 28.05 14.925C28.05 15.2083 27.9583 15.4417 27.775 15.625L25.65 17.775C25.45 17.975 25.2167 18.075 24.95 18.075C24.6833 18.075 24.45 17.975 24.25 17.775C24.05 17.575 23.95 17.3377 23.95 17.063C23.95 16.7883 24.05 16.5507 24.25 16.35ZM27 21H30C30.2833 21 30.521 21.096 30.713 21.288C30.905 21.48 31.0007 21.7173 31 22C30.9993 22.2827 30.9033 22.5203 30.712 22.713C30.5207 22.9057 30.2833 23.0013 30 23H27C26.7167 23 26.4793 22.904 26.288 22.712C26.0967 22.52 26.0007 22.2827 26 22C25.9993 21.7173 26.0953 21.48 26.288 21.288C26.4807 21.096 26.718 21 27 21ZM14.35 17.75L12.225 15.625C12.0417 15.4417 11.946 15.2127 11.938 14.938C11.93 14.6633 12.0257 14.4257 12.225 14.225C12.4083 14.0417 12.6417 13.95 12.925 13.95C13.2083 13.95 13.4417 14.0417 13.625 14.225L15.775 16.35C15.975 16.55 16.075 16.7833 16.075 17.05C16.075 17.3167 15.975 17.55 15.775 17.75C15.575 17.95 15.3377 18.05 15.063 18.05C14.7883 18.05 14.5507 17.95 14.35 17.75ZM10 23C9.71667 23 9.47934 22.904 9.288 22.712C9.09667 22.52 9.00067 22.2827 9 22C8.99934 21.7173 9.09534 21.48 9.288 21.288C9.48067 21.096 9.718 21 10 21H13C13.2833 21 13.521 21.096 13.713 21.288C13.905 21.48 14.0007 21.7173 14 22C13.9993 22.2827 13.9033 22.5203 13.712 22.713C13.5207 22.9057 13.2833 23.0013 13 23H10Z" fill="#9D2929"/>
</svg>
