<svg width="40" height="40" viewBox="0 0 40 40" fill="none" xmlns="http://www.w3.org/2000/svg">
<rect width="40" height="40" rx="12" fill="#EFE7F9"/>
<g clip-path="url(#clip0_258_1598)">
<path d="M12 18.6875C12 16.5989 12.8429 14.5959 14.3431 13.119C15.8434 11.6422 17.8783 10.8125 20 10.8125C22.1217 10.8125 24.1566 11.6422 25.6569 13.119C27.1571 14.5959 28 16.5989 28 18.6875C28 20.7761 27.1571 22.7791 25.6569 24.256C24.1566 25.7328 22.1217 26.5625 20 26.5625C17.8783 26.5625 15.8434 25.7328 14.3431 24.256C12.8429 22.7791 12 20.7761 12 18.6875ZM19.3333 14.9141V15.0781C18.1333 15.0904 17.1667 16.0502 17.1667 17.2314C17.1667 18.2855 17.9375 19.1838 18.9958 19.3561L20.7333 19.6432C20.9833 19.6842 21.1667 19.8975 21.1667 20.1477C21.1667 20.4307 20.9333 20.6604 20.6458 20.6604L18.3333 20.6562C17.875 20.6562 17.5 21.0254 17.5 21.4766C17.5 21.9277 17.875 22.2969 18.3333 22.2969H19.3333V22.4609C19.3333 22.9121 19.7083 23.2812 20.1667 23.2812C20.625 23.2812 21 22.9121 21 22.4609V22.2682C22.0417 22.1 22.8333 21.2141 22.8333 20.1436C22.8333 19.0895 22.0625 18.1912 21.0042 18.0189L19.2667 17.7318C19.0167 17.6908 18.8333 17.4775 18.8333 17.2273C18.8333 16.9443 19.0667 16.7146 19.3542 16.7146H21.3333C21.7917 16.7146 22.1667 16.3455 22.1667 15.8943C22.1667 15.4432 21.7917 15.074 21.3333 15.074H21V14.91C21 14.4588 20.625 14.0896 20.1667 14.0896C19.7083 14.0896 19.3333 14.4588 19.3333 14.91V14.9141ZM10 23.6094V27.875C10 28.2359 10.3 28.5312 10.6667 28.5312H29.3333C29.7 28.5312 30 28.2359 30 27.875V23.6094C30 23.0639 30.4458 22.625 31 22.625C31.5542 22.625 32 23.0639 32 23.6094V27.875C32 29.3229 30.8042 30.5 29.3333 30.5H10.6667C9.19583 30.5 8 29.3229 8 27.875V23.6094C8 23.0639 8.44583 22.625 9 22.625C9.55417 22.625 10 23.0639 10 23.6094Z" fill="#61299D"/>
</g>
<defs>
<clipPath id="clip0_258_1598">
<rect width="24" height="21" fill="white" transform="translate(8 9.5)"/>
</clipPath>
</defs>
</svg>
