<svg width="40" height="40" viewBox="0 0 40 40" fill="none" xmlns="http://www.w3.org/2000/svg">
<rect width="40" height="40" rx="12" fill="#F5EAEA"/>
<path fill-rule="evenodd" clip-rule="evenodd" d="M20 10.25C20.1989 10.25 20.3897 10.329 20.5303 10.4697C20.671 10.6103 20.75 10.8011 20.75 11V12.737C22.1813 12.757 23.6113 12.833 25.04 12.965L25.37 12.995C26.4639 13.0963 27.4819 13.5978 28.2288 14.4033C28.9758 15.2088 29.3993 16.2616 29.418 17.36L29.43 18.073C29.477 20.8482 29.2532 23.6213 28.762 26.353C28.6535 26.9551 28.3369 27.4999 27.8675 27.8924C27.3981 28.2848 26.8058 28.4999 26.194 28.5H25.973C25.4166 28.5004 24.872 28.3391 24.4056 28.0357C23.9392 27.7323 23.5711 27.2999 23.346 26.791L22.286 24.401C21.406 22.418 18.594 22.418 17.715 24.401L16.655 26.791C16.4298 27.3002 16.0613 27.7328 15.5945 28.0363C15.1277 28.3397 14.5827 28.5008 14.026 28.5H13.806C13.1937 28.5003 12.6008 28.2853 12.131 27.8926C11.6612 27.5 11.3444 26.9546 11.236 26.352C10.7451 23.6206 10.5218 20.8478 10.569 18.073L10.581 17.36C10.5997 16.2615 11.0233 15.2085 11.7705 14.403C12.5177 13.5975 13.5359 13.0961 14.63 12.995L14.962 12.965C16.3881 12.8332 17.8189 12.7571 19.251 12.737V11C19.251 10.8011 19.33 10.6103 19.4707 10.4697C19.6113 10.329 19.8021 10.25 20.001 10.25M25 16C25 15.7348 24.8946 15.4804 24.7071 15.2929C24.5196 15.1054 24.2652 15 24 15C23.7348 15 23.4804 15.1054 23.2929 15.2929C23.1053 15.4804 23 15.7348 23 16V16.25C23 16.5152 23.1053 16.7696 23.2929 16.9571C23.4804 17.1446 23.7348 17.25 24 17.25C24.2652 17.25 24.5196 17.1446 24.7071 16.9571C24.8946 16.7696 25 16.5152 25 16.25V16ZM16 15.25C16.1989 15.25 16.3897 15.329 16.5303 15.4697C16.671 15.6103 16.75 15.8011 16.75 16V17.25H18C18.1989 17.25 18.3897 17.329 18.5303 17.4697C18.671 17.6103 18.75 17.8011 18.75 18C18.75 18.1989 18.671 18.3897 18.5303 18.5303C18.3897 18.671 18.1989 18.75 18 18.75H16.75V20C16.75 20.1989 16.671 20.3897 16.5303 20.5303C16.3897 20.671 16.1989 20.75 16 20.75C15.8011 20.75 15.6103 20.671 15.4697 20.5303C15.329 20.3897 15.25 20.1989 15.25 20V18.75H14C13.8011 18.75 13.6103 18.671 13.4697 18.5303C13.329 18.3897 13.25 18.1989 13.25 18C13.25 17.8011 13.329 17.6103 13.4697 17.4697C13.6103 17.329 13.8011 17.25 14 17.25H15.25V16C15.25 15.8011 15.329 15.6103 15.4697 15.4697C15.6103 15.329 15.8011 15.25 16 15.25ZM24 18.75C24.2652 18.75 24.5196 18.8554 24.7071 19.0429C24.8946 19.2304 25 19.4848 25 19.75V20C25 20.2652 24.8946 20.5196 24.7071 20.7071C24.5196 20.8946 24.2652 21 24 21C23.7348 21 23.4804 20.8946 23.2929 20.7071C23.1053 20.5196 23 20.2652 23 20V19.75C23 19.4848 23.1053 19.2304 23.2929 19.0429C23.4804 18.8554 23.7348 18.75 24 18.75ZM26 19C26.2652 19 26.5196 18.8946 26.7071 18.7071C26.8946 18.5196 27 18.2652 27 18C27 17.7348 26.8946 17.4804 26.7071 17.2929C26.5196 17.1054 26.2652 17 26 17H25.75C25.4848 17 25.2304 17.1054 25.0429 17.2929C24.8553 17.4804 24.75 17.7348 24.75 18C24.75 18.2652 24.8553 18.5196 25.0429 18.7071C25.2304 18.8946 25.4848 19 25.75 19H26ZM23.25 18C23.25 18.2652 23.1446 18.5196 22.9571 18.7071C22.7696 18.8946 22.5152 19 22.25 19H22C21.7348 19 21.4804 18.8946 21.2929 18.7071C21.1053 18.5196 21 18.2652 21 18C21 17.7348 21.1053 17.4804 21.2929 17.2929C21.4804 17.1054 21.7348 17 22 17H22.25C22.5152 17 22.7696 17.1054 22.9571 17.2929C23.1446 17.4804 23.25 17.7348 23.25 18Z" fill="#793A3B"/>
</svg>
