<svg width="28" height="16" viewBox="0 0 28 16" fill="none" xmlns="http://www.w3.org/2000/svg">
<rect width="28" height="16" rx="2" fill="#D0D0D0"/>
<path d="M6.3 12V4.8H7.66V12H6.3ZM9.15898 12V4.8H11.489C11.5457 4.8 11.6623 4.80167 11.839 4.805C12.0157 4.80833 12.1857 4.82 12.349 4.84C12.929 4.91 13.4207 5.11167 13.824 5.445C14.2273 5.77833 14.534 6.20167 14.744 6.715C14.954 7.22833 15.059 7.79 15.059 8.4C15.059 9.01 14.954 9.57167 14.744 10.085C14.534 10.5983 14.2273 11.0217 13.824 11.355C13.4207 11.6883 12.929 11.89 12.349 11.96C12.1857 11.98 12.0157 11.9917 11.839 11.995C11.6623 11.9983 11.5457 12 11.489 12H9.15898ZM10.539 10.72H11.489C11.579 10.72 11.7007 10.7183 11.854 10.715C12.0073 10.7083 12.1457 10.6933 12.269 10.67C12.5823 10.6067 12.8373 10.46 13.034 10.23C13.234 10 13.3807 9.72333 13.474 9.4C13.5707 9.07667 13.619 8.74333 13.619 8.4C13.619 8.04 13.569 7.69833 13.469 7.375C13.3723 7.05167 13.224 6.77833 13.024 6.555C12.824 6.33167 12.5723 6.19 12.269 6.13C12.1457 6.10333 12.0073 6.08833 11.854 6.085C11.7007 6.08167 11.579 6.08 11.489 6.08H10.539V10.72ZM16.2586 12V4.8H19.2986C19.3686 4.8 19.4619 4.80333 19.5786 4.81C19.6986 4.81333 19.8053 4.82333 19.8986 4.84C20.3286 4.90667 20.6803 5.04833 20.9536 5.265C21.2303 5.48167 21.4336 5.755 21.5636 6.085C21.6936 6.41167 21.7586 6.77667 21.7586 7.18C21.7586 7.78333 21.6086 8.3 21.3086 8.73C21.0086 9.15667 20.5386 9.42 19.8986 9.52L19.2986 9.56H17.6186V12H16.2586ZM20.3186 12L18.8986 9.07L20.2986 8.8L21.8586 12H20.3186ZM17.6186 8.29H19.2386C19.3086 8.29 19.3853 8.28667 19.4686 8.28C19.5519 8.27333 19.6286 8.26 19.6986 8.24C19.8819 8.19 20.0236 8.10667 20.1236 7.99C20.2236 7.87 20.2919 7.73833 20.3286 7.595C20.3686 7.44833 20.3886 7.31 20.3886 7.18C20.3886 7.05 20.3686 6.91333 20.3286 6.77C20.2919 6.62333 20.2236 6.49167 20.1236 6.375C20.0236 6.255 19.8819 6.17 19.6986 6.12C19.6286 6.1 19.5519 6.08667 19.4686 6.08C19.3853 6.07333 19.3086 6.07 19.2386 6.07H17.6186V8.29Z" fill="#393939"/>
</svg>
