<svg width="40" height="40" viewBox="0 0 40 40" fill="none" xmlns="http://www.w3.org/2000/svg">
<rect width="40" height="40" rx="12" fill="#E7F2F9"/>
<path d="M13.406 10.3999H13.3904C13.318 10.4014 13.2464 10.4161 13.1792 10.4431C13.082 10.4816 12.9966 10.5448 12.9313 10.6265C12.8661 10.7081 12.8233 10.8054 12.8072 10.9087C12.788 11.0215 12.2 14.7139 12.2 16.3999C12.2 17.5399 12.7304 18.5563 13.556 19.2139C13.856 19.4551 14 19.7167 14 19.9351V20.5351C14 20.5567 13.9988 20.5783 13.9964 20.5999C13.964 20.9119 13.8152 22.3147 13.6748 23.7571C13.5368 25.1791 13.4 26.6971 13.4 27.1999C13.4 27.8364 13.6529 28.4469 14.103 28.897C14.553 29.347 15.1635 29.5999 15.8 29.5999C16.4365 29.5999 17.047 29.347 17.4971 28.897C17.9472 28.4469 18.2 27.8364 18.2 27.1999C18.2 26.6959 18.0632 25.1791 17.9252 23.7571C17.8226 22.7046 17.7154 21.6526 17.6036 20.6011L17.6 20.5351V19.9351C17.6 19.7155 17.744 19.4551 18.044 19.2139C18.4669 18.8768 18.8084 18.4488 19.0431 17.9616C19.2779 17.4745 19.3999 16.9407 19.4 16.3999C19.4 14.7103 18.8084 11.0011 18.7928 10.9075C18.7752 10.7947 18.7257 10.6893 18.6503 10.6037C18.5748 10.518 18.4765 10.4556 18.3668 10.4239C18.3165 10.4092 18.2644 10.4011 18.212 10.3999H18.188H18.1892C18.0293 10.4012 17.8764 10.4656 17.7638 10.5791C17.6512 10.6926 17.588 10.846 17.588 11.0059V15.8059C17.5897 15.8839 17.5759 15.9615 17.5476 16.0342C17.5193 16.1069 17.4769 16.1733 17.4229 16.2296C17.369 16.2859 17.3044 16.3311 17.233 16.3625C17.1615 16.3938 17.0846 16.4108 17.0066 16.4125C16.9286 16.4142 16.851 16.4004 16.7783 16.3721C16.7056 16.3438 16.6392 16.3014 16.5829 16.2474C16.5266 16.1934 16.4814 16.1289 16.45 16.0575C16.4187 15.986 16.4017 15.9091 16.4 15.8311V10.9999C16.4 10.8408 16.3368 10.6882 16.2243 10.5756C16.1118 10.4631 15.9591 10.3999 15.8 10.3999C15.6409 10.3999 15.4883 10.4631 15.3757 10.5756C15.2632 10.6882 15.2 10.8408 15.2 10.9999V15.7999L15.2012 15.8383C15.1969 15.9958 15.1302 16.1452 15.0158 16.2536C14.9013 16.3619 14.7486 16.4204 14.591 16.4161C14.4335 16.4118 14.2841 16.3451 14.1757 16.2307C14.0674 16.1162 14.0089 15.9634 14.0132 15.8059V11.0071C14.0132 10.8463 13.9494 10.692 13.8358 10.5782C13.7222 10.4643 13.5668 10.4002 13.406 10.3999ZM21.2 15.7999C21.2 14.3677 21.7689 12.9942 22.7816 11.9815C23.7943 10.9688 25.1678 10.3999 26.6 10.3999C26.7591 10.3999 26.9118 10.4631 27.0243 10.5756C27.1368 10.6882 27.2 10.8408 27.2 10.9999V19.3735L27.224 19.6423C27.3175 20.7205 27.4087 21.7989 27.4976 22.8775C27.6464 24.6859 27.8 26.6707 27.8 27.1999C27.8 27.8364 27.5472 28.4469 27.0971 28.897C26.647 29.347 26.0365 29.5999 25.4 29.5999C24.7635 29.5999 24.153 29.347 23.703 28.897C23.2529 28.4469 23 27.8364 23 27.1999C23 26.6719 23.1536 24.6859 23.3024 22.8775C23.3768 21.9643 23.4524 21.0811 23.5088 20.4271L23.5448 19.9999H23C22.5226 19.9999 22.0648 19.8103 21.7272 19.4727C21.3897 19.1351 21.2 18.6773 21.2 18.1999V15.7999Z" fill="#29749D"/>
</svg>
