<svg width="40" height="40" viewBox="0 0 40 40" fill="none" xmlns="http://www.w3.org/2000/svg">
<rect width="40" height="40" rx="12" fill="#F7F5E9"/>
<path fill-rule="evenodd" clip-rule="evenodd" d="M15.245 10H24.755C25.914 10 26.493 10 26.961 10.163C27.4021 10.3197 27.8011 10.5759 28.1273 10.9116C28.4535 11.2473 28.698 11.6536 28.842 12.099C29 12.581 29 13.177 29 14.37V28.374C29 29.232 28.015 29.688 27.392 29.118C27.2172 28.9565 26.988 28.8668 26.75 28.8668C26.512 28.8668 26.2828 28.9565 26.108 29.118L25.625 29.56C25.3188 29.8432 24.9171 30.0004 24.5 30.0004C24.0829 30.0004 23.6812 29.8432 23.375 29.56C23.0688 29.2768 22.6671 29.1196 22.25 29.1196C21.8329 29.1196 21.4312 29.2768 21.125 29.56C20.8188 29.8432 20.4171 30.0004 20 30.0004C19.5829 30.0004 19.1812 29.8432 18.875 29.56C18.5688 29.2768 18.1671 29.1196 17.75 29.1196C17.3329 29.1196 16.9312 29.2768 16.625 29.56C16.3188 29.8432 15.9171 30.0004 15.5 30.0004C15.0829 30.0004 14.6812 29.8432 14.375 29.56L13.892 29.118C13.7172 28.9565 13.488 28.8668 13.25 28.8668C13.012 28.8668 12.7828 28.9565 12.608 29.118C11.985 29.688 11 29.232 11 28.374V14.37C11 13.177 11 12.58 11.158 12.1C11.458 11.187 12.153 10.471 13.039 10.163C13.507 10 14.086 10 15.245 10ZM15 14.75C14.8011 14.75 14.6103 14.829 14.4697 14.9697C14.329 15.1103 14.25 15.3011 14.25 15.5C14.25 15.6989 14.329 15.8897 14.4697 16.0303C14.6103 16.171 14.8011 16.25 15 16.25H15.5C15.6989 16.25 15.8897 16.171 16.0303 16.0303C16.171 15.8897 16.25 15.6989 16.25 15.5C16.25 15.3011 16.171 15.1103 16.0303 14.9697C15.8897 14.829 15.6989 14.75 15.5 14.75H15ZM18.5 14.75C18.3011 14.75 18.1103 14.829 17.9697 14.9697C17.829 15.1103 17.75 15.3011 17.75 15.5C17.75 15.6989 17.829 15.8897 17.9697 16.0303C18.1103 16.171 18.3011 16.25 18.5 16.25H25C25.1989 16.25 25.3897 16.171 25.5303 16.0303C25.671 15.8897 25.75 15.6989 25.75 15.5C25.75 15.3011 25.671 15.1103 25.5303 14.9697C25.3897 14.829 25.1989 14.75 25 14.75H18.5ZM15 18.25C14.8011 18.25 14.6103 18.329 14.4697 18.4697C14.329 18.6103 14.25 18.8011 14.25 19C14.25 19.1989 14.329 19.3897 14.4697 19.5303C14.6103 19.671 14.8011 19.75 15 19.75H15.5C15.6989 19.75 15.8897 19.671 16.0303 19.5303C16.171 19.3897 16.25 19.1989 16.25 19C16.25 18.8011 16.171 18.6103 16.0303 18.4697C15.8897 18.329 15.6989 18.25 15.5 18.25H15ZM18.5 18.25C18.3011 18.25 18.1103 18.329 17.9697 18.4697C17.829 18.6103 17.75 18.8011 17.75 19C17.75 19.1989 17.829 19.3897 17.9697 19.5303C18.1103 19.671 18.3011 19.75 18.5 19.75H25C25.1989 19.75 25.3897 19.671 25.5303 19.5303C25.671 19.3897 25.75 19.1989 25.75 19C25.75 18.8011 25.671 18.6103 25.5303 18.4697C25.3897 18.329 25.1989 18.25 25 18.25H18.5ZM15 21.75C14.8011 21.75 14.6103 21.829 14.4697 21.9697C14.329 22.1103 14.25 22.3011 14.25 22.5C14.25 22.6989 14.329 22.8897 14.4697 23.0303C14.6103 23.171 14.8011 23.25 15 23.25H15.5C15.6989 23.25 15.8897 23.171 16.0303 23.0303C16.171 22.8897 16.25 22.6989 16.25 22.5C16.25 22.3011 16.171 22.1103 16.0303 21.9697C15.8897 21.829 15.6989 21.75 15.5 21.75H15ZM18.5 21.75C18.3011 21.75 18.1103 21.829 17.9697 21.9697C17.829 22.1103 17.75 22.3011 17.75 22.5C17.75 22.6989 17.829 22.8897 17.9697 23.0303C18.1103 23.171 18.3011 23.25 18.5 23.25H25C25.1989 23.25 25.3897 23.171 25.5303 23.0303C25.671 22.8897 25.75 22.6989 25.75 22.5C25.75 22.3011 25.671 22.1103 25.5303 21.9697C25.3897 21.829 25.1989 21.75 25 21.75H18.5Z" fill="#BCAA04"/>
</svg>
